USFL
nRows=238
nColumns=2
inDegrees=yes
endheader
time	tib_ant_r	
4.125	 51.963842	
4.15827	 51.953350	
4.19153	 51.934148	
4.2248	 51.938745	
4.25806	 51.939486	
4.29133	 51.926353	
4.3246	 51.957512	
4.35786	 51.966778	
4.39113	 51.939527	
4.4244	 51.953498	
4.45766	 51.976499	
4.49093	 51.932856	
4.52419	 51.940110	
4.55746	 51.927364	
4.59073	 51.935979	
4.62399	 51.928583	
4.65726	 51.920976	
4.69052	 51.943058	
4.72379	 51.933326	
4.75706	 51.943450	
4.79032	 51.953744	
4.82359	 51.922835	
4.85685	 51.900324	
4.89012	 51.910266	
4.92339	 51.904086	
4.95665	 51.937856	
4.98992	 51.919789	
5.02319	 51.928458	
5.05645	 51.930756	
5.08972	 51.942034	
5.12298	 51.952922	
5.15625	 51.943699	
5.18952	 51.941498	
5.22278	 51.979655	
5.25605	 51.979236	
5.28931	 51.953549	
5.32258	 51.931458	
5.35585	 51.949967	
5.38911	 51.915835	
5.42238	 51.949527	
5.45565	 51.934671	
5.48891	 51.888398	
5.52218	 51.889917	
5.55544	 51.886991	
5.58871	 51.940850	
5.62198	 51.964957	
5.65524	 51.956330	
5.68851	 51.947964	
5.72177	 51.979884	
5.75504	 52.004161	
5.78831	 51.974877	
5.82157	 51.949116	
5.85484	 51.931702	
5.8881	 51.955657	
5.92137	 51.996472	
5.95464	 51.970374	
5.9879	 51.964809	
6.02117	 51.887669	
6.05444	 51.819224	
6.0877	 51.795385	
6.12097	 51.837558	
6.15423	 51.596690	
6.1875	 51.207551	
6.22077	 51.062824	
6.25403	 49.932934	
6.2873	 49.573662	
6.32056	 49.184833	
6.35383	 48.491594	
6.3871	 47.801612	
6.42036	 47.118970	
6.45363	 46.366058	
6.4869	 45.884527	
6.52016	 45.530600	
6.55343	 45.071085	
6.58669	 44.533245	
6.61996	 44.299215	
6.65323	 44.360884	
6.68649	 44.301360	
6.71976	 44.273666	
6.75302	 44.243921	
6.78629	 44.289587	
6.81956	 44.216335	
6.85282	 43.986401	
6.88609	 43.935924	
6.91935	 44.101044	
6.95262	 44.182818	
6.98589	 44.236412	
7.01915	 44.473119	
7.05242	 44.487303	
7.08569	 44.518209	
7.11895	 44.491319	
7.15222	 44.513239	
7.18548	 44.466859	
7.21875	 44.407351	
7.25202	 44.473349	
7.28528	 44.557809	
7.31855	 44.548091	
7.35181	 44.508811	
7.38508	 44.552704	
7.41835	 44.607039	
7.45161	 44.566432	
7.48488	 44.467284	
7.51815	 44.538650	
7.55141	 44.535820	
7.58468	 44.589278	
7.61794	 44.639291	
7.65121	 44.685013	
7.68448	 44.645920	
7.71774	 44.617524	
7.75101	 44.539933	
7.78427	 44.584188	
7.81754	 44.612642	
7.85081	 44.660610	
7.88407	 44.510978	
7.91734	 44.569614	
7.9506	 44.520920	
7.98387	 44.428240	
8.01714	 44.446985	
8.0504	 44.383771	
8.08367	 44.288781	
8.11694	 44.213665	
8.1502	 44.253219	
8.18347	 44.304392	
8.21673	 44.206007	
8.25	 44.125351	
8.28327	 44.222596	
8.31653	 44.247516	
8.3498	 44.233918	
8.38306	 44.210699	
8.41633	 44.312448	
8.4496	 44.307887	
8.48286	 44.323858	
8.51613	 44.385900	
8.5494	 44.338904	
8.58266	 44.309177	
8.61593	 44.261901	
8.64919	 44.328987	
8.68246	 44.263319	
8.71573	 44.193230	
8.74899	 44.172631	
8.78226	 44.151557	
8.81552	 43.955913	
8.84879	 43.933410	
8.88206	 43.923698	
8.91532	 43.859469	
8.94859	 43.925920	
8.98185	 43.934948	
9.01512	 43.982029	
9.04839	 44.042686	
9.08165	 44.042564	
9.11492	 44.016973	
9.14819	 44.023181	
9.18145	 43.998260	
9.21472	 43.898824	
9.24798	 43.958249	
9.28125	 43.956662	
9.31452	 43.937682	
9.34778	 43.968166	
9.38105	 43.948011	
9.41431	 43.952566	
9.44758	 43.962894	
9.48085	 43.908526	
9.51411	 43.773361	
9.54738	 43.830885	
9.58065	 43.734713	
9.61391	 43.709879	
9.64718	 43.649068	
9.68044	 43.691567	
9.71371	 43.627020	
9.74698	 43.571916	
9.78024	 43.571741	
9.81351	 43.554459	
9.84677	 43.540797	
9.88004	 43.502776	
9.91331	 43.544895	
9.94657	 43.537134	
9.97984	 43.506295	
10.0131	 43.489043	
10.0464	 43.432238	
10.0796	 43.475114	
10.1129	 43.498474	
10.1462	 43.491998	
10.1794	 43.429935	
10.2127	 43.440160	
10.246	 43.397928	
10.2792	 43.430330	
10.3125	 43.433152	
10.3458	 43.355200	
10.379	 43.341279	
10.4123	 43.402729	
10.4456	 43.430876	
10.4788	 43.342352	
10.5121	 43.264897	
10.5454	 43.213867	
10.5786	 43.288359	
10.6119	 43.228418	
10.6452	 43.210970	
10.6784	 43.218723	
10.7117	 43.222187	
10.745	 43.243459	
10.7782	 43.182299	
10.8115	 43.178396	
10.8448	 43.192647	
10.878	 43.193094	
10.9113	 43.254288	
10.9446	 43.317233	
10.9778	 43.974545	
11.0111	 44.392740	
11.0444	 44.924393	
11.0776	 45.711086	
11.1109	 46.673657	
11.1442	 47.450790	
11.1774	 47.759600	
11.2107	 47.540517	
11.244	 47.624624	
11.2772	 47.631993	
11.3105	 47.599781	
11.3437	 47.714652	
11.377	 47.843447	
11.4103	 47.583183	
11.4435	 47.670339	
11.4768	 47.816383	
11.5101	 47.705405	
11.5433	 47.806841	
11.5766	 47.958419	
11.6099	 48.147398	
11.6431	 48.170108	
11.6764	 48.105965	
11.7097	 48.144967	
11.7429	 48.201563	
11.7762	 48.203697	
11.8095	 48.226956	
11.8427	 48.289681	
11.876	 48.375619	
11.9093	 48.367628	
11.9425	 48.379128	
11.9758	 48.330023	
12.0091	 48.374525	
